<svg xmlns="http://www.w3.org/2000/svg" xmlns:xlink="http://www.w3.org/1999/xlink" width="120" height="120" viewBox="0 0 120 120">
  <defs>
    <clipPath id="clip-path">
      <rect id="Rectangle_16148" data-name="Rectangle 16148" width="120" height="120" transform="translate(-0.061 -0.455)" fill="none"/>
    </clipPath>
  </defs>
  <g id="Mask_Group_61" data-name="Mask Group 61" transform="translate(0.061 0.455)" clip-path="url(#clip-path)">
    <g id="Group_5589" data-name="Group 5589" transform="translate(-0.014 -0.105)">
      <path id="Path_3619" data-name="Path 3619" d="M595.632,207.86v19.3H503v-19.3a3.87,3.87,0,0,1,3.86-3.86h84.913a3.87,3.87,0,0,1,3.86,3.86Zm0,0" transform="translate(-501.07 -202.07)" fill="#48c6fd"/>
      <path id="Path_3620" data-name="Path 3620" d="M534.719,231.86a3.86,3.86,0,1,1-3.86-3.86,3.859,3.859,0,0,1,3.86,3.86Zm0,0" transform="translate(-517.351 -218.351)" fill="#fff"/>
      <path id="Path_3621" data-name="Path 3621" d="M582.719,231.86a3.86,3.86,0,1,1-3.86-3.86,3.859,3.859,0,0,1,3.86,3.86Zm0,0" transform="translate(-549.912 -218.351)" fill="#fff"/>
      <path id="Path_3622" data-name="Path 3622" d="M630.719,231.86a3.86,3.86,0,1,1-3.86-3.86,3.859,3.859,0,0,1,3.86,3.86Zm0,0" transform="translate(-582.474 -218.351)" fill="#fff"/>
      <path id="Path_3623" data-name="Path 3623" d="M595.632,368.632H506.86a3.87,3.87,0,0,1-3.86-3.86V276h92.632A23.162,23.162,0,0,0,573.4,292.655a63.7,63.7,0,0,1-24.084-8.935,63.33,63.33,0,0,1-33.636,9.649h-1.1v24.238a44.366,44.366,0,0,0,34.737,43.306,44.353,44.353,0,0,0,34.718-41.7,22.776,22.776,0,0,0,7.738,2.779v8.047h-1.93a1.935,1.935,0,0,0-1.93,1.93v28.947a7.716,7.716,0,0,0,7.719,7.719Zm0,0" transform="translate(-501.07 -250.912)" fill="#fff"/>
      <path id="Path_3624" data-name="Path 3624" d="M596.9,315.439c0,.5.019,1,.058,1.486h-.019a67.93,67.93,0,0,1-23.2-7.276,70.588,70.588,0,0,1-27.018,7.719v16.519a36.666,36.666,0,0,0,27.018,35.586,36.666,36.666,0,0,0,27.018-35.586v-5.635a23.036,23.036,0,0,0,7.7,7.237,44.353,44.353,0,0,1-34.718,41.7A44.366,44.366,0,0,1,539,333.888V309.649h1.1A63.327,63.327,0,0,0,573.737,300a63.7,63.7,0,0,0,24.084,8.936,23.338,23.338,0,0,0-.926,6.5Zm0,0" transform="translate(-525.491 -267.193)" fill="#48c6fd"/>
      <path id="Path_3625" data-name="Path 3625" d="M617.035,348.6v5.635a36.666,36.666,0,0,1-27.018,35.586A36.666,36.666,0,0,1,563,354.238V337.719A70.588,70.588,0,0,0,590.018,330a67.931,67.931,0,0,0,23.2,7.276h.019a22.858,22.858,0,0,0,3.8,11.328Zm0,0" transform="translate(-541.772 -287.544)" fill="#fff"/>
      <path id="Path_3626" data-name="Path 3626" d="M786.719,418.98v8.047H779V418.98a22.867,22.867,0,0,0,7.719,0Zm0,0" transform="translate(-688.298 -347.904)" fill="#fff"/>
      <path id="Path_3627" data-name="Path 3627" d="M782.439,468v23.158a7.719,7.719,0,0,1-15.439,0V468Zm0,0" transform="translate(-680.158 -381.158)" fill="#48c6fd"/>
      <path id="Path_3628" data-name="Path 3628" d="M782.439,445.93v5.79H767v-5.79a1.935,1.935,0,0,1,1.93-1.93h11.579a1.935,1.935,0,0,1,1.93,1.93Zm0,0" transform="translate(-680.158 -364.877)" fill="#fff"/>
      <path id="Path_3629" data-name="Path 3629" d="M742.158,276a23.158,23.158,0,1,1-3.86,45.988,22.779,22.779,0,0,1-7.738-2.779,23.089,23.089,0,0,1-11.5-18.565c-.039-.482-.058-.985-.058-1.486A23.134,23.134,0,0,1,742.158,276Zm0,0" transform="translate(-647.596 -250.912)" fill="#48c6fd"/>
      <path id="Path_3630" data-name="Path 3630" d="M603.487,383.469l-2.729,2.729,9.213,9.213,20.652-24.781-2.965-2.47-17.945,21.535Zm0,0" transform="translate(-567.385 -313.43)"/>
      <path id="Path_3631" data-name="Path 3631" d="M526.79,233.579A5.79,5.79,0,1,0,521,227.79a5.8,5.8,0,0,0,5.79,5.789Zm0-7.719a1.93,1.93,0,1,1-1.93,1.93,1.933,1.933,0,0,1,1.93-1.93Zm0,0" transform="translate(-513.281 -214.281)"/>
      <path id="Path_3632" data-name="Path 3632" d="M574.79,233.579A5.79,5.79,0,1,0,569,227.79a5.8,5.8,0,0,0,5.789,5.789Zm0-7.719a1.93,1.93,0,1,1-1.93,1.93,1.933,1.933,0,0,1,1.93-1.93Zm0,0" transform="translate(-545.842 -214.281)"/>
      <path id="Path_3633" data-name="Path 3633" d="M622.79,233.579A5.79,5.79,0,1,0,617,227.79a5.8,5.8,0,0,0,5.79,5.789Zm0-7.719a1.93,1.93,0,1,1-1.93,1.93,1.933,1.933,0,0,1,1.93-1.93Zm0,0" transform="translate(-578.404 -214.281)"/>
      <path id="Path_3634" data-name="Path 3634" d="M616.65,246.246a25.1,25.1,0,0,0-23.158-24.99V203.79A5.8,5.8,0,0,0,587.7,198H502.789A5.8,5.8,0,0,0,497,203.79V311.86a5.8,5.8,0,0,0,5.789,5.789h88.772A9.66,9.66,0,0,0,601.211,308V279.053a3.864,3.864,0,0,0-3.86-3.86v-4.561a25.114,25.114,0,0,0,19.3-24.387Zm-3.86,0a21.228,21.228,0,1,1-21.228-21.228,21.253,21.253,0,0,1,21.228,21.228ZM566.7,249.415a24.869,24.869,0,0,0,3.637,10.139v5.141a34.9,34.9,0,0,1-25.088,33.581,34.9,34.9,0,0,1-25.088-33.581v-14.78a72.3,72.3,0,0,0,25.088-7.281,70.394,70.394,0,0,0,21.451,6.781Zm-.184-3.937a65.713,65.713,0,0,1-20.354-6.724l-.913-.488-.914.488a68.814,68.814,0,0,1-26.284,7.5l-1.75.165V264.7a38.755,38.755,0,0,0,28.444,37.446l.5.137.5-.137A38.755,38.755,0,0,0,574.193,264.7v-.391a25,25,0,0,0,3.749,2.978,42.407,42.407,0,0,1-32.7,38.739A42.175,42.175,0,0,1,512.439,264.7V242.38a65.331,65.331,0,0,0,32.807-9.309,64.935,64.935,0,0,0,21.726,8.2,25.267,25.267,0,0,0-.459,4.2ZM502.789,201.86H587.7a1.933,1.933,0,0,1,1.93,1.93v17.368H500.86V203.79a1.933,1.933,0,0,1,1.93-1.93Zm-1.93,110V225.018h77.392a25.187,25.187,0,0,0-10.191,12.529,61.181,61.181,0,0,1-21.794-8.376l-1.022-.638-1.023.638a61.47,61.47,0,0,1-32.622,9.356h-3.022V264.7a46.013,46.013,0,0,0,36.248,45.186l.418.093.419-.093a46.267,46.267,0,0,0,35.992-40.6,24.739,24.739,0,0,0,4.116,1.345v4.562a3.864,3.864,0,0,0-3.86,3.86V308a9.553,9.553,0,0,0,1.98,5.789h-81.1a1.933,1.933,0,0,1-1.93-1.93Zm96.492-32.807v3.86H585.772v-3.86Zm-5.79,34.737A5.8,5.8,0,0,1,585.772,308V286.772h11.579V308a5.8,5.8,0,0,1-5.79,5.789Zm1.93-38.6h-3.86v-3.958c.638.051,1.278.1,1.93.1s1.292-.048,1.93-.1Zm0,0" transform="translate(-497 -198)"/>
    </g>
  </g>
</svg>
