<svg xmlns="http://www.w3.org/2000/svg" xmlns:xlink="http://www.w3.org/1999/xlink" width="55" height="55" viewBox="0 0 55 55">
  <defs>
    <clipPath id="clip-path">
      <rect id="Rectangle_15471" data-name="Rectangle 15471" width="55" height="55" transform="translate(140 1658)" fill="none"/>
    </clipPath>
    <clipPath id="clip-path-2">
      <rect id="Rectangle_15500" data-name="Rectangle 15500" width="55" height="55" transform="translate(0 0)" fill="#373737"/>
    </clipPath>
  </defs>
  <g id="Mask_Group_9" data-name="Mask Group 9" transform="translate(-140 -1658)" clip-path="url(#clip-path)">
    <g id="Group_2488" data-name="Group 2488" transform="translate(-363.001 1453.995)">
      <path id="Path_1681" data-name="Path 1681" d="M562.168,232a10.085,10.085,0,0,1-10.084,10.084h-33a10.086,10.086,0,0,1-2-19.97l.221-.042a5.5,5.5,0,0,1,5.448-4.74c.079,0,.158,0,.237.006a5.464,5.464,0,0,1,1.87.412,15.59,15.59,0,0,1,28.652,4.266A10.078,10.078,0,0,1,562.168,232Zm0,0" transform="translate(-5.08 -5.081)" fill="#48c6fd"/>
      <path id="Path_1682" data-name="Path 1682" d="M541.75,438H555.5a2.744,2.744,0,0,1,2.75,2.75v1.834a2.744,2.744,0,0,1-2.75,2.75H541.75a2.744,2.744,0,0,1-2.75-2.75V440.75a2.744,2.744,0,0,1,2.75-2.75Zm0,0" transform="translate(-30.499 -198.247)" fill="#fff"/>
      <path id="Path_1683" data-name="Path 1683" d="M541.75,390H555.5a2.744,2.744,0,0,1,2.75,2.75v1.833a2.744,2.744,0,0,1-2.75,2.75H541.75a2.744,2.744,0,0,1-2.75-2.75V392.75a2.744,2.744,0,0,1,2.75-2.75Zm0,0" transform="translate(-30.499 -157.581)" fill="#fff"/>
      <path id="Path_1684" data-name="Path 1684" d="M541.75,342H555.5a2.744,2.744,0,0,1,2.75,2.75v1.833a2.744,2.744,0,0,1-2.75,2.75H541.75a2.744,2.744,0,0,1-2.75-2.75V344.75a2.744,2.744,0,0,1,2.75-2.75Zm0,0" transform="translate(-30.499 -116.915)" fill="#fff"/>
      <path id="Path_1685" data-name="Path 1685" d="M761,372h7.334a2.75,2.75,0,0,1,2.75,2.75v3.667H761Zm0,0" transform="translate(-218.58 -142.331)" fill="#fff"/>
      <path id="Path_1686" data-name="Path 1686" d="M743,374.75v5.5a2.75,2.75,0,0,0,2.75,2.75h7.334a2.75,2.75,0,0,0,2.75-2.75v-1.834a2.75,2.75,0,0,0-2.75-2.75h-1.967a2.752,2.752,0,0,1-2.46-1.52l-.313-.627a2.751,2.751,0,0,0-2.46-1.52h-.134a2.75,2.75,0,0,0-2.75,2.75Zm0,0" transform="translate(-203.33 -142.331)" fill="#fff"/>
      <path id="Path_1687" data-name="Path 1687" d="M761,486h7.334a2.75,2.75,0,0,1,2.75,2.75v3.667H761Zm0,0" transform="translate(-218.58 -238.913)" fill="#fff"/>
      <g id="Group_2487" data-name="Group 2487" transform="translate(503.001 204.005)">
        <g id="Group_2486" data-name="Group 2486" transform="translate(0 0)" clip-path="url(#clip-path-2)">
          <path id="Path_1688" data-name="Path 1688" d="M743,488.75v5.5a2.75,2.75,0,0,0,2.75,2.75h7.334a2.75,2.75,0,0,0,2.75-2.75v-1.834a2.75,2.75,0,0,0-2.75-2.75h-1.967a2.752,2.752,0,0,1-2.46-1.52l-.313-.627a2.751,2.751,0,0,0-2.46-1.52h-.134a2.75,2.75,0,0,0-2.75,2.75Zm0,0" transform="translate(-706.331 -442.918)" fill="#fff"/>
          <path id="Path_1689" data-name="Path 1689" d="M555.283,219.675a11,11,0,0,0-6.117-3.541,16.5,16.5,0,0,0-29.79-4.568,6.416,6.416,0,0,0-7.94,4.654,11,11,0,0,0-5.921,17.7l1.413-1.167a9.168,9.168,0,0,1,7.073-15c.279,0,.559.013.834.038l.165-1.826c-.33-.03-.666-.045-1-.045q-.271,0-.539.013a4.581,4.581,0,0,1,4.975-2.7c-.23.47-.442.951-.628,1.445l1.715.647a14.671,14.671,0,0,1,28.4,5.177h1.833a16.545,16.545,0,0,0-.172-2.38,9.214,9.214,0,0,1,6.59,8.8,9.107,9.107,0,0,1-1.666,5.271l1.5,1.056a11,11,0,0,0-.721-13.571Zm0,0" transform="translate(-503 -204.005)" fill="#373737"/>
        </g>
      </g>
      <path id="Path_1690" data-name="Path 1690" d="M552.833,456.917a.917.917,0,1,1-.917-.917.917.917,0,0,1,.917.917Zm0,0" transform="translate(-40.666 -213.497)" fill="#373737"/>
      <path id="Path_1691" data-name="Path 1691" d="M570.833,456.917a.917.917,0,1,1-.917-.917.917.917,0,0,1,.917.917Zm0,0" transform="translate(-55.916 -213.497)" fill="#373737"/>
      <path id="Path_1692" data-name="Path 1692" d="M588.833,456.917a.917.917,0,1,1-.917-.917.917.917,0,0,1,.917.917Zm0,0" transform="translate(-71.166 -213.497)" fill="#373737"/>
      <rect id="Rectangle_15501" data-name="Rectangle 15501" width="5" height="2" transform="translate(520.001 242.005)" fill="#373737"/>
      <path id="Path_1693" data-name="Path 1693" d="M552.833,408.917a.917.917,0,1,1-.917-.917.917.917,0,0,1,.917.917Zm0,0" transform="translate(-40.666 -172.831)" fill="#373737"/>
      <path id="Path_1694" data-name="Path 1694" d="M570.833,408.917a.917.917,0,1,1-.917-.917.917.917,0,0,1,.917.917Zm0,0" transform="translate(-55.916 -172.831)" fill="#373737"/>
      <path id="Path_1695" data-name="Path 1695" d="M588.833,408.917a.917.917,0,1,1-.917-.917.917.917,0,0,1,.917.917Zm0,0" transform="translate(-71.166 -172.831)" fill="#373737"/>
      <rect id="Rectangle_15502" data-name="Rectangle 15502" width="5" height="1" transform="translate(520.001 236.005)" fill="#373737"/>
      <path id="Path_1696" data-name="Path 1696" d="M550.418,336H536.667A3.671,3.671,0,0,0,533,339.667V341.5a3.658,3.658,0,0,0,1.246,2.75A3.658,3.658,0,0,0,533,347v1.834a3.658,3.658,0,0,0,1.246,2.75,3.658,3.658,0,0,0-1.246,2.75v1.833a3.671,3.671,0,0,0,3.667,3.667h13.751a3.671,3.671,0,0,0,3.667-3.667v-1.833a3.658,3.658,0,0,0-1.246-2.75,3.658,3.658,0,0,0,1.246-2.75V347a3.658,3.658,0,0,0-1.246-2.75,3.658,3.658,0,0,0,1.246-2.75v-1.833A3.671,3.671,0,0,0,550.418,336Zm1.834,18.335v1.833A1.836,1.836,0,0,1,550.418,358H536.667a1.836,1.836,0,0,1-1.833-1.834v-1.833a1.836,1.836,0,0,1,1.833-1.833h13.751a1.836,1.836,0,0,1,1.834,1.833Zm0-7.334v1.834a1.836,1.836,0,0,1-1.834,1.834H536.667a1.836,1.836,0,0,1-1.833-1.834V347a1.836,1.836,0,0,1,1.833-1.834h13.751A1.836,1.836,0,0,1,552.252,347Zm-15.585-3.667a1.836,1.836,0,0,1-1.833-1.834v-1.833a1.836,1.836,0,0,1,1.833-1.834h13.751a1.836,1.836,0,0,1,1.834,1.834V341.5a1.836,1.836,0,0,1-1.834,1.834Zm0,0" transform="translate(-25.416 -111.832)" fill="#373737"/>
      <path id="Path_1697" data-name="Path 1697" d="M552.833,360.917a.917.917,0,1,1-.917-.917.917.917,0,0,1,.917.917Zm0,0" transform="translate(-40.666 -132.165)" fill="#373737"/>
      <path id="Path_1698" data-name="Path 1698" d="M570.833,360.917a.917.917,0,1,1-.917-.917.917.917,0,0,1,.917.917Zm0,0" transform="translate(-55.916 -132.165)" fill="#373737"/>
      <path id="Path_1699" data-name="Path 1699" d="M588.833,360.917a.917.917,0,1,1-.917-.917.917.917,0,0,1,.917.917Zm0,0" transform="translate(-71.166 -132.165)" fill="#373737"/>
      <rect id="Rectangle_15503" data-name="Rectangle 15503" width="5" height="2" transform="translate(520.001 227.005)" fill="#373737"/>
      <path id="Path_1700" data-name="Path 1700" d="M748,366h-7.334A3.671,3.671,0,0,0,737,369.667v5.5a3.671,3.671,0,0,0,3.667,3.667H748a3.671,3.671,0,0,0,3.667-3.667v-5.5A3.671,3.671,0,0,0,748,366Zm1.833,3.667v.493a3.637,3.637,0,0,0-1.833-.493h-1.967a1.824,1.824,0,0,1-1.64-1.013l-.313-.627c-.033-.066-.069-.13-.105-.193H748a1.836,1.836,0,0,1,1.833,1.834Zm0,5.5A1.835,1.835,0,0,1,748,377h-7.334a1.835,1.835,0,0,1-1.833-1.833v-5.5a1.836,1.836,0,0,1,1.833-1.834h.134a1.825,1.825,0,0,1,1.64,1.013l.313.627a3.646,3.646,0,0,0,3.28,2.027H748a1.836,1.836,0,0,1,1.833,1.833Zm0,0" transform="translate(-198.247 -137.248)" fill="#373737"/>
      <path id="Path_1701" data-name="Path 1701" d="M748,480h-7.334A3.671,3.671,0,0,0,737,483.667v5.5a3.671,3.671,0,0,0,3.667,3.667H748a3.671,3.671,0,0,0,3.667-3.667v-5.5A3.671,3.671,0,0,0,748,480Zm1.833,3.667v.493a3.638,3.638,0,0,0-1.833-.493h-1.967a1.824,1.824,0,0,1-1.64-1.013l-.313-.627c-.033-.066-.069-.13-.105-.193H748a1.836,1.836,0,0,1,1.833,1.834Zm0,5.5A1.835,1.835,0,0,1,748,491h-7.334a1.835,1.835,0,0,1-1.833-1.833v-5.5a1.836,1.836,0,0,1,1.833-1.834h.134a1.825,1.825,0,0,1,1.64,1.014l.313.627a3.646,3.646,0,0,0,3.28,2.027H748a1.836,1.836,0,0,1,1.833,1.833Zm0,0" transform="translate(-198.247 -233.83)" fill="#373737"/>
      <path id="Path_1702" data-name="Path 1702" d="M677,402v1.834h2.75v17.418a.917.917,0,0,0,.917.917h3.667v-1.834h-2.75v-16.5h2.75V402Zm0,0" transform="translate(-147.414 -167.747)" fill="#373737"/>
    </g>
  </g>
</svg>
