<svg xmlns="http://www.w3.org/2000/svg" xmlns:xlink="http://www.w3.org/1999/xlink" width="55" height="55" viewBox="0 0 55 55">
  <defs>
    <clipPath id="clip-path">
      <rect id="Rectangle_15472" data-name="Rectangle 15472" width="55" height="55" transform="translate(416 1658)" fill="none"/>
    </clipPath>
  </defs>
  <g id="Mask_Group_11" data-name="Mask Group 11" transform="translate(-416 -1658)" clip-path="url(#clip-path)">
    <g id="Group_2490" data-name="Group 2490" transform="translate(-74 1466)">
      <path id="Path_1721" data-name="Path 1721" d="M550.261,211.579v-8.756a2.33,2.33,0,0,0-2.323-2.323H500.823a2.328,2.328,0,0,0-2.323,2.323v8.756Zm0,0" transform="translate(-6.448 -6.448)" fill="#48c6fd" fill-rule="evenodd"/>
      <path id="Path_1722" data-name="Path 1722" d="M507.324,303.1a17.057,17.057,0,1,1,31.611,8.9h9a2.331,2.331,0,0,0,2.323-2.323v-30.2H498.5v30.2A2.33,2.33,0,0,0,500.823,312h9a16.964,16.964,0,0,1-2.5-8.9Zm0,0" transform="translate(-6.448 -74.349)" fill="#fff" fill-rule="evenodd"/>
      <path id="Path_1723" data-name="Path 1723" d="M572.768,336.871a4.6,4.6,0,0,1,4.58-4.58h2.225a4.6,4.6,0,0,1,4.581,4.58v3.761h.528a1.748,1.748,0,0,1,1.741,1.742V346.4a7.962,7.962,0,1,1-15.924,0v-4.023a1.748,1.748,0,0,1,1.744-1.742h.525v-3.761Zm22.751,6.48a17.052,17.052,0,1,0-2.5,8.9,17.058,17.058,0,0,0,2.5-8.9Zm0,0" transform="translate(-60.53 -114.595)" fill="#48c6fd" fill-rule="evenodd"/>
      <path id="Path_1724" data-name="Path 1724" d="M639.882,428.508H627.972a1.748,1.748,0,0,0-1.745,1.742v4.023a7.963,7.963,0,0,0,15.925,0V430.25a1.748,1.748,0,0,0-1.742-1.742Zm0,0" transform="translate(-116.258 -202.472)" fill="#fff" fill-rule="evenodd"/>
      <path id="Path_1725" data-name="Path 1725" d="M653.792,373.627a4.6,4.6,0,0,0-4.581-4.58h-2.225a4.6,4.6,0,0,0-4.58,4.58v3.761h11.386Zm0,0" transform="translate(-130.168 -151.352)" fill="#fff" fill-rule="evenodd"/>
      <path id="Path_1726" data-name="Path 1726" d="M775.336,234.584a1.052,1.052,0,0,0,0-2.1h-.006a1.052,1.052,0,1,0,.006,2.1Zm0,0" transform="translate(-243.544 -33.942)" fill="#373737"/>
      <path id="Path_1727" data-name="Path 1727" d="M815.813,234.584a1.052,1.052,0,0,0,0-2.1h-.006a1.052,1.052,0,1,0,.006,2.1Zm0,0" transform="translate(-278.343 -33.942)" fill="#373737"/>
      <path id="Path_1728" data-name="Path 1728" d="M734.86,234.584a1.052,1.052,0,1,0,0-2.1h-.006a1.052,1.052,0,0,0,.006,2.1Zm0,0" transform="translate(-208.746 -33.942)" fill="#373737"/>
      <path id="Path_1729" data-name="Path 1729" d="M537.247,234.584h15.809a1.052,1.052,0,0,0,0-2.1H537.247a1.052,1.052,0,1,0,0,2.1Zm0,0" transform="translate(-38.855 -33.942)" fill="#373737"/>
      <path id="Path_1730" data-name="Path 1730" d="M541.49,193H494.375A3.379,3.379,0,0,0,491,196.375v38.956a3.379,3.379,0,0,0,3.375,3.375h8.42a18.288,18.288,0,0,0,2.333,2.853,18.117,18.117,0,0,0,27.936-2.853h8.426a3.379,3.379,0,0,0,3.375-3.375V196.375A3.379,3.379,0,0,0,541.49,193Zm-47.115,2.1H541.49a1.273,1.273,0,0,1,1.271,1.271v7.7H493.1v-7.7a1.273,1.273,0,0,1,1.271-1.271Zm47.115,41.5h-7.237a18.138,18.138,0,0,0-3.515-20.651,17.942,17.942,0,0,0-10.393-5.144A18.246,18.246,0,0,0,509.17,212.9a1.052,1.052,0,0,0,1.018,1.842,16.007,16.007,0,0,1,19.062,25.327,16,16,0,0,1-22.635,0,16.074,16.074,0,0,1-2.7-19.058,1.052,1.052,0,1,0-1.841-1.019,18.24,18.24,0,0,0-2.095,11.174A18.045,18.045,0,0,0,501.6,236.6h-7.227a1.273,1.273,0,0,1-1.271-1.271V206.183h49.657v29.148a1.273,1.273,0,0,1-1.271,1.271Zm0,0" transform="translate(0 0)" fill="#373737"/>
      <path id="Path_1731" data-name="Path 1731" d="M676.54,462.826a1.052,1.052,0,0,0,1.052-1.052v-2.511a1.052,1.052,0,0,0-2.1,0v2.511a1.052,1.052,0,0,0,1.052,1.052Zm0,0" transform="translate(-158.609 -228.009)" fill="#373737"/>
      <path id="Path_1732" data-name="Path 1732" d="M627.741,385.719a9.024,9.024,0,0,0,9.014-9.015v-4.023a2.8,2.8,0,0,0-2.269-2.744v-2.758a5.639,5.639,0,0,0-5.633-5.632h-2.225A5.639,5.639,0,0,0,621,367.179v2.759a2.8,2.8,0,0,0-2.269,2.743V376.7a9.025,9.025,0,0,0,9.014,9.015Zm-4.641-18.54a3.532,3.532,0,0,1,3.528-3.528h2.225a3.533,3.533,0,0,1,3.529,3.528v2.708H623.1Zm-2.269,5.5a.7.7,0,0,1,.693-.689h12.438a.7.7,0,0,1,.689.689V376.7a6.91,6.91,0,1,1-13.82,0Zm0,0" transform="translate(-109.81 -144.904)" fill="#373737"/>
      <path id="Path_1733" data-name="Path 1733" d="M589.826,354.728a1.052,1.052,0,1,0,1.488,1.488l0,0a1.052,1.052,0,0,0-1.49-1.485Zm0,0" transform="translate(-84.698 -138.776)" fill="#373737"/>
    </g>
  </g>
</svg>
