<svg xmlns="http://www.w3.org/2000/svg" xmlns:xlink="http://www.w3.org/1999/xlink" width="55" height="55" viewBox="0 0 55 55">
  <defs>
    <clipPath id="clip-path">
      <rect id="Rectangle_15476" data-name="Rectangle 15476" width="55" height="55" transform="translate(692 1831)" fill="none"/>
    </clipPath>
  </defs>
  <g id="Mask_Group_14" data-name="Mask Group 14" transform="translate(-692 -1831)" clip-path="url(#clip-path)">
    <g id="Group_2495" data-name="Group 2495" transform="translate(263.428 1703)">
      <path id="Path_1770" data-name="Path 1770" d="M592.3,184.161H564.64a2.627,2.627,0,0,1-2.628-2.628V138.128a2.628,2.628,0,0,1,2.628-2.628H592.3a2.628,2.628,0,0,1,2.628,2.628v43.406a2.628,2.628,0,0,1-2.628,2.628Zm0,0" transform="translate(-118.724 -6.694)" fill="#48c6fd"/>
      <rect id="Rectangle_15506" data-name="Rectangle 15506" width="32.912" height="37.62" transform="translate(443.288 134.368)" fill="#fff"/>
      <path id="Path_1772" data-name="Path 1772" d="M463.826,265.225H439.112a2.613,2.613,0,0,1-2.612-2.613V245.422a2.613,2.613,0,0,1,2.612-2.613h24.714a2.613,2.613,0,0,1,2.612,2.613v17.191a2.613,2.613,0,0,1-2.612,2.613Zm0,0" transform="translate(-6.694 -102.476)" fill="#48c6fd"/>
      <path id="Path_1774" data-name="Path 1774" d="M480.746,329.146l3.965-2.594a.392.392,0,0,1,.226-.06.8.8,0,0,1,.724.754.529.529,0,0,1-.226.437l-3.166,2.081,3.166,2.081a.49.49,0,0,1,.226.437.78.78,0,0,1-.724.739.394.394,0,0,1-.226-.06l-3.965-2.594a.755.755,0,0,1-.332-.6.781.781,0,0,1,.332-.618Zm0,0" transform="translate(-45.891 -177.17)"/>
      <path id="Path_1775" data-name="Path 1775" d="M551.8,288.327a.441.441,0,0,1-.06.241L546.2,299.606a.546.546,0,0,1-.5.286.583.583,0,0,1-.588-.558.6.6,0,0,1,.045-.226l5.549-11.082a.459.459,0,0,1,.452-.271.615.615,0,0,1,.634.573Zm0,0" transform="translate(-103.644 -142.593)"/>
      <path id="Path_1776" data-name="Path 1776" d="M628.057,330.371l-3.966,2.594a.345.345,0,0,1-.211.06.768.768,0,0,1-.724-.739.516.516,0,0,1,.211-.437l3.182-2.081-3.182-2.08a.559.559,0,0,1-.211-.437.783.783,0,0,1,.724-.754.345.345,0,0,1,.211.06l3.966,2.593a.782.782,0,0,1,.332.619.717.717,0,0,1-.332.6Zm0,0" transform="translate(-173.299 -177.173)"/>
      <path id="Path_1777" data-name="Path 1777" d="M744.543,458.611a1.443,1.443,0,0,1-1.441-1.442v-.459a.5.5,0,0,0-.356-.482,8.28,8.28,0,0,1-1.71-.7.48.48,0,0,0-.231-.059.508.508,0,0,0-.357.149l-.32.32a1.441,1.441,0,0,1-2.038,0l-.783-.783a1.442,1.442,0,0,1,0-2.038l.32-.32a.5.5,0,0,0,.089-.588,8.342,8.342,0,0,1-.7-1.71.5.5,0,0,0-.482-.356h-.459a1.443,1.443,0,0,1-1.441-1.441v-1.108a1.443,1.443,0,0,1,1.441-1.441h.5a.505.505,0,0,0,.483-.35,8.267,8.267,0,0,1,.707-1.656.5.5,0,0,0-.085-.6l-.372-.372a1.442,1.442,0,0,1,0-2.039l.783-.783a1.442,1.442,0,0,1,2.038,0l.414.414a.509.509,0,0,0,.356.148.48.48,0,0,0,.228-.057,8.3,8.3,0,0,1,1.617-.651.5.5,0,0,0,.358-.481v-.605a1.443,1.443,0,0,1,1.441-1.442h1.108a1.443,1.443,0,0,1,1.441,1.442v.647a.5.5,0,0,0,.349.478,8.33,8.33,0,0,1,1.569.658.49.49,0,0,0,.236.06.5.5,0,0,0,.355-.147l.464-.464a1.442,1.442,0,0,1,2.039,0l.783.783a1.444,1.444,0,0,1,0,2.039l-.464.464a.5.5,0,0,0-.087.592,8.287,8.287,0,0,1,.658,1.568.5.5,0,0,0,.478.35h.647a1.443,1.443,0,0,1,1.441,1.441V448.7a1.443,1.443,0,0,1-1.441,1.442h-.6a.5.5,0,0,0-.481.357,8.309,8.309,0,0,1-.651,1.618.5.5,0,0,0,.092.584l.414.414a1.441,1.441,0,0,1,0,2.038l-.783.783a1.441,1.441,0,0,1-2.039,0l-.371-.371a.5.5,0,0,0-.356-.148.488.488,0,0,0-.24.063,8.308,8.308,0,0,1-1.655.707.5.5,0,0,0-.351.483v.5a1.443,1.443,0,0,1-1.441,1.442Zm.554-13.852a3.388,3.388,0,1,0,3.388,3.388,3.392,3.392,0,0,0-3.388-3.388Zm0,0" transform="translate(-272.801 -276.417)" fill="#48c6fd"/>
      <path id="Path_1778" data-name="Path 1778" d="M460.55,255.918V238.727a3.422,3.422,0,0,0-3.418-3.418H432.418A3.422,3.422,0,0,0,429,238.727v17.191a3.422,3.422,0,0,0,3.418,3.418h24.714a3.422,3.422,0,0,0,3.418-3.418Zm-29.939,0V238.727a1.809,1.809,0,0,1,1.807-1.807h24.714a1.809,1.809,0,0,1,1.807,1.807v17.191a1.809,1.809,0,0,1-1.807,1.807H432.418a1.809,1.809,0,0,1-1.807-1.807Zm0,0" transform="translate(0 -95.782)"/>
      <path id="Path_1779" data-name="Path 1779" d="M797.19,496.055A4.2,4.2,0,0,0,793,500.249q0,.09,0,.179c0,.026,0,.052,0,.079a.812.812,0,0,0,.025.2,4.194,4.194,0,1,0,4.169-4.65Zm0,1.611a2.587,2.587,0,0,1,2.524,2.034h-5.048a2.587,2.587,0,0,1,2.524-2.034Zm0,5.165a2.587,2.587,0,0,1-2.354-1.52h4.707a2.585,2.585,0,0,1-2.353,1.52Zm0,0" transform="translate(-324.895 -328.518)"/>
      <path id="Path_1780" data-name="Path 1780" d="M593.346,168.93h-.425a9.111,9.111,0,0,0-.542-1.293l.305-.3a2.249,2.249,0,0,0,0-3.178l-.783-.783a2.248,2.248,0,0,0-2.866-.261V131.433A3.437,3.437,0,0,0,585.6,128H557.945a3.437,3.437,0,0,0-3.433,3.433v5.677a.806.806,0,0,0,1.611,0v-1.937h31.3v28.065q-.149-.055-.3-.1v-.425a2.25,2.25,0,0,0-2.247-2.247h-1.108a2.25,2.25,0,0,0-2.247,2.247v.379a9.092,9.092,0,0,0-1.341.54l-.257-.257a2.247,2.247,0,0,0-3.178,0l-.783.783a2.247,2.247,0,0,0,0,3.179l.211.211a9.087,9.087,0,0,0-.592,1.387H575.3a2.249,2.249,0,0,0-2.247,2.247v.005H556.123v-5.21a.806.806,0,0,0-1.611,0v8.867a3.437,3.437,0,0,0,3.433,3.433h17.429a2.232,2.232,0,0,0,.59,1.035l.783.783a2.247,2.247,0,0,0,3.178,0l.161-.162a9.126,9.126,0,0,0,1.437.589v.234A2.25,2.25,0,0,0,583.771,183h1.108a2.25,2.25,0,0,0,2.247-2.247v-.281a9.107,9.107,0,0,0,1.387-.592l.211.211a2.247,2.247,0,0,0,3.178,0l.783-.783a2.247,2.247,0,0,0,0-3.178l-.257-.257a9.056,9.056,0,0,0,.54-1.341h.379a2.25,2.25,0,0,0,2.247-2.247v-1.108a2.25,2.25,0,0,0-2.247-2.247Zm-37.223-35.368v-2.129a1.824,1.824,0,0,1,1.822-1.822H585.6a1.824,1.824,0,0,1,1.822,1.822v2.129Zm0,41.277v-2.045h16.99a2.251,2.251,0,0,0,2.189,1.738h.235a9.087,9.087,0,0,0,.589,1.437l-.162.161a2.254,2.254,0,0,0-.4.531H557.945a1.824,1.824,0,0,1-1.822-1.822Zm37.859-2.554a.636.636,0,0,1-.636.636h-.6a1.308,1.308,0,0,0-1.256.943,7.486,7.486,0,0,1-.588,1.46,1.313,1.313,0,0,0,.233,1.532l.414.414a.637.637,0,0,1,0,.9l-.783.783a.636.636,0,0,1-.9,0l-.372-.372a1.3,1.3,0,0,0-1.56-.218,7.457,7.457,0,0,1-1.495.638,1.316,1.316,0,0,0-.922,1.254v.5a.637.637,0,0,1-.636.636h-1.107a.637.637,0,0,1-.636-.636v-.459a1.307,1.307,0,0,0-.941-1.257,7.509,7.509,0,0,1-1.544-.632,1.286,1.286,0,0,0-.617-.157,1.32,1.32,0,0,0-.927.384l-.32.32a.636.636,0,0,1-.9,0l-.783-.783a.624.624,0,0,1-.186-.449.77.77,0,0,1,0-.082.589.589,0,0,0,.011-.063.629.629,0,0,1,.17-.305l.32-.32a1.309,1.309,0,0,0,.227-1.544,7.526,7.526,0,0,1-.632-1.543,1.307,1.307,0,0,0-1.257-.942H575.3a.637.637,0,0,1-.636-.636v-1.107a.637.637,0,0,1,.636-.636h.5a1.316,1.316,0,0,0,1.255-.922,7.465,7.465,0,0,1,.638-1.494,1.309,1.309,0,0,0-.218-1.561l-.372-.371a.637.637,0,0,1,0-.9l.783-.783a.636.636,0,0,1,.9,0l.414.414a1.318,1.318,0,0,0,.926.384,1.28,1.28,0,0,0,.606-.151,7.5,7.5,0,0,1,1.46-.588,1.308,1.308,0,0,0,.943-1.256v-.605a.636.636,0,0,1,.636-.636h1.108a.636.636,0,0,1,.636.636v.647a1.312,1.312,0,0,0,.921,1.249,7.474,7.474,0,0,1,1.392.581l.041.022a1.3,1.3,0,0,0,1.53-.234l.464-.464a.636.636,0,0,1,.9,0l.783.783a.638.638,0,0,1,0,.9l-.464.464a1.312,1.312,0,0,0-.224,1.548,7.5,7.5,0,0,1,.593,1.415,1.312,1.312,0,0,0,1.249.921h.647a.637.637,0,0,1,.636.636Zm0,0" transform="translate(-112.029)"/>
    </g>
  </g>
</svg>
