<svg xmlns="http://www.w3.org/2000/svg" xmlns:xlink="http://www.w3.org/1999/xlink" width="55" height="55" viewBox="0 0 55 55">
  <defs>
    <clipPath id="clip-path">
      <rect id="Rectangle_15479" data-name="Rectangle 15479" width="55" height="55" transform="translate(692 2004)" fill="none"/>
    </clipPath>
  </defs>
  <g id="Mask_Group_10" data-name="Mask Group 10" transform="translate(-692 -2004)" clip-path="url(#clip-path)">
    <g id="Group_2489" data-name="Group 2489" transform="translate(266 1870)">
      <path id="Path_1703" data-name="Path 1703" d="M600.3,461.492h-7.07c0,10.883-6.63,16.453-6.63,16.453h20.33s-6.63-5.57-6.63-16.453Zm0,0" transform="translate(-142.772 -292.064)" fill="#48c6fd"/>
      <path id="Path_1704" data-name="Path 1704" d="M587.973,589.3H564.859a1.007,1.007,0,0,1-1.008-1.008,3.21,3.21,0,0,1,3.21-3.21H585.77a3.21,3.21,0,0,1,3.21,3.21,1.007,1.007,0,0,1-1.007,1.008Zm0,0" transform="translate(-122.421 -402.625)" fill="#fff"/>
      <path id="Path_1705" data-name="Path 1705" d="M484.872,182.381H436.537a2.036,2.036,0,0,1-2.037-2.036V144.537a2.037,2.037,0,0,1,2.037-2.037h48.335a2.037,2.037,0,0,1,2.037,2.037v35.808a2.036,2.036,0,0,1-2.037,2.036Zm0,0" transform="translate(-6.709 -6.709)" fill="#48c6fd"/>
      <rect id="Rectangle_15504" data-name="Rectangle 15504" width="46.503" height="27.785" transform="translate(430.743 138.849)" fill="#fff"/>
      <path id="Path_1707" data-name="Path 1707" d="M434.5,464.988v3.839a2.037,2.037,0,0,0,2.037,2.036h48.335a2.037,2.037,0,0,0,2.037-2.036v-3.839Zm0,0" transform="translate(-6.709 -295.191)" fill="#fff"/>
      <path id="Path_1710" data-name="Path 1710" d="M743.266,207.4l-3.043,3.063,4.329,4.329,3.063-3.043Zm0,0" transform="translate(-280.194 -64.761)" fill="#48c6fd"/>
      <path id="Path_1711" data-name="Path 1711" d="M502.712,208.7h-3.085a.619.619,0,0,1-.619-.619V205a.619.619,0,0,1,.619-.619h3.085a.619.619,0,0,1,.619.619v3.086a.619.619,0,0,1-.619.619Zm0,0" transform="translate(-64.415 -62.063)" fill="#48c6fd"/>
      <path id="Path_1712" data-name="Path 1712" d="M502.712,282.8h-3.085a.619.619,0,0,1-.619-.619V279.1a.619.619,0,0,1,.619-.619h3.085a.619.619,0,0,1,.619.619v3.086a.619.619,0,0,1-.619.619Zm0,0" transform="translate(-64.415 -128.35)" fill="#48c6fd"/>
      <path id="Path_1713" data-name="Path 1713" d="M502.712,355.905h-3.085a.619.619,0,0,1-.619-.619V352.2a.619.619,0,0,1,.619-.619h3.085a.619.619,0,0,1,.619.619v3.085a.619.619,0,0,1-.619.619Zm0,0" transform="translate(-64.415 -193.744)" fill="#48c6fd"/>
      <path id="Path_1714" data-name="Path 1714" d="M478.163,135H429.828A2.831,2.831,0,0,0,427,137.828v35.808a2.83,2.83,0,0,0,2.828,2.827h18.808a21.838,21.838,0,0,1-2.379,5.207h-1.616a4.006,4.006,0,0,0-4,4,1.8,1.8,0,0,0,1.8,1.8h23.113a1.8,1.8,0,0,0,1.8-1.8,4.005,4.005,0,0,0-4-4h-1.616a21.818,21.818,0,0,1-2.378-5.207h18.808a2.83,2.83,0,0,0,2.827-2.827V137.828A2.831,2.831,0,0,0,478.163,135Zm-48.335,1.582h48.335a1.247,1.247,0,0,1,1.246,1.246v31.179H428.582V137.828a1.247,1.247,0,0,1,1.246-1.246Zm35.941,49.09a.217.217,0,0,1-.217.217H442.438a.217.217,0,0,1-.217-.217,2.422,2.422,0,0,1,2.419-2.42h18.707a2.422,2.422,0,0,1,2.419,2.42Zm-5.879-4H448.1a23.574,23.574,0,0,0,2.185-5.207H457.7a23.576,23.576,0,0,0,2.185,5.207Zm18.273-6.789H429.828a1.247,1.247,0,0,1-1.246-1.246v-3.048h50.827v3.048a1.247,1.247,0,0,1-1.246,1.246Zm0,0" fill="#373737"/>
      <path id="Path_1715" data-name="Path 1715" d="M455.791,320.134h46.5a.791.791,0,0,0,.791-.791V306.5a.791.791,0,1,0-1.582,0v12.05H456.582V306.507a.791.791,0,1,0-1.582,0v12.836a.791.791,0,0,0,.791.791Zm0,0" transform="translate(-25.047 -152.71)" fill="#373737"/>
      <path id="Path_1716" data-name="Path 1716" d="M455.791,177.362a.791.791,0,0,0,.791-.791V165.582H501.5v10.989a.791.791,0,0,0,1.582,0v-11.78a.791.791,0,0,0-.791-.791h-46.5a.791.791,0,0,0-.791.791v11.78a.791.791,0,0,0,.791.791Zm0,0" transform="translate(-25.047 -25.942)" fill="#373737"/>
      <path id="Path_1717" data-name="Path 1717" d="M497.413,198.289a1.411,1.411,0,0,0-1.41-1.41h-3.085a1.411,1.411,0,0,0-1.41,1.41v3.086a1.411,1.411,0,0,0,1.41,1.41H496a1.411,1.411,0,0,0,1.41-1.41Zm-1.582,2.913H493.09v-2.741h2.742Zm0,0" transform="translate(-57.706 -55.354)" fill="#373737"/>
      <path id="Path_1718" data-name="Path 1718" d="M497.413,272.39a1.412,1.412,0,0,0-1.41-1.41h-3.085a1.411,1.411,0,0,0-1.41,1.41v3.085a1.412,1.412,0,0,0,1.41,1.41H496a1.412,1.412,0,0,0,1.41-1.41Zm-1.582,2.913H493.09v-2.742h2.742Zm0,0" transform="translate(-57.706 -121.641)" fill="#373737"/>
      <path id="Path_1719" data-name="Path 1719" d="M496,344.082h-3.085a1.412,1.412,0,0,0-1.41,1.41v3.085a1.412,1.412,0,0,0,1.41,1.41H496a1.412,1.412,0,0,0,1.41-1.41v-3.085a1.411,1.411,0,0,0-1.41-1.41Zm-.172,4.323H493.09v-2.742h2.742Zm0,0" transform="translate(-57.706 -187.034)" fill="#373737"/>
      <path id="Path_1720" data-name="Path 1720" d="M620.66,219.909s0,.01,0,.015a.043.043,0,0,1,0,.007v.022h0c0,.007,0,.015,0,.022a.013.013,0,0,1,0,0c0,.007,0,.014,0,.021v0a.787.787,0,0,0,.174.4h0l.014.017,0,0,.013.014,0,0,.016.016.015.014.01.009,0,0a.787.787,0,0,0,.488.2h.126l.017,0h0c.024,0,.048-.007.071-.013l12.534-2.639a2.479,2.479,0,0,0,1.961-2.29c.251-4.645,1.506-6.514,2.048-7.112l3.05-3.03a.791.791,0,0,0,0-1.12l-4.349-4.349a.792.792,0,0,0-.559-.231h0a.789.789,0,0,0-.56.233l-3.029,3.049c-.6.542-2.465,1.8-7.112,2.049a2.48,2.48,0,0,0-2.291,1.961l-2.639,12.536a.765.765,0,0,0-.014.082s0,0,0,0,0,.012,0,.018a.051.051,0,0,1,0,.007c0,.006,0,.012,0,.018a.024.024,0,0,0,0,.005c0,.007,0,.014,0,.021v.008a.076.076,0,0,0,0,.014.069.069,0,0,0,0,.009Zm15.653-18.1,3.227,3.227-1.941,1.929-3.214-3.214Zm-11.447,5.707a.9.9,0,0,1,.828-.707c1.955-.105,5.368-.509,7.513-2l3.333,3.333c-1.491,2.144-1.894,5.558-2,7.513a.9.9,0,0,1-.707.828l-9.942,2.093,3.9-3.9a2.76,2.76,0,1,0-1.119-1.118l-3.9,3.9Zm3.054,4.727a1.187,1.187,0,1,1,.348.839,1.176,1.176,0,0,1-.348-.839Zm0,0" transform="translate(-173.239 -58.052)" fill="#373737"/>
    </g>
  </g>
</svg>
