<svg xmlns="http://www.w3.org/2000/svg" xmlns:xlink="http://www.w3.org/1999/xlink" width="55" height="55" viewBox="0 0 55 55">
  <defs>
    <clipPath id="clip-path">
      <rect id="Rectangle_15473" data-name="Rectangle 15473" width="55" height="55" transform="translate(692 1658)" fill="none"/>
    </clipPath>
  </defs>
  <g id="Mask_Group_12" data-name="Mask Group 12" transform="translate(-692 -1658)" clip-path="url(#clip-path)">
    <g id="Group_2491" data-name="Group 2491" transform="translate(265 1527.352)">
      <path id="Path_1734" data-name="Path 1734" d="M480.376,186.168H436.293a1.793,1.793,0,0,1-1.793-1.793V140.293a1.793,1.793,0,0,1,1.793-1.793h44.083a1.793,1.793,0,0,1,1.793,1.793v44.083a1.793,1.793,0,0,1-1.793,1.793Zm0,0" transform="translate(-6.694 -6.694)" fill="#fff"/>
      <path id="Path_1736" data-name="Path 1736" d="M480.376,138.5H436.293a1.793,1.793,0,0,0-1.793,1.793v5.426h47.668v-5.426a1.793,1.793,0,0,0-1.793-1.793Zm0,0" transform="translate(-6.694 -6.694)" fill="#48c6fd"/>
      <path id="Path_1738" data-name="Path 1738" d="M756.2,164.967a.858.858,0,1,1-.858-.858.858.858,0,0,1,.858.858Zm0,0" transform="translate(-292.302 -29.552)" fill="#373737"/>
      <path id="Path_1739" data-name="Path 1739" d="M794.493,164.967a.858.858,0,1,1-.858-.858.858.858,0,0,1,.858.858Zm0,0" transform="translate(-326.484 -29.552)" fill="#373737"/>
      <path id="Path_1740" data-name="Path 1740" d="M832.79,164.967a.858.858,0,1,1-.858-.858.858.858,0,0,1,.858.858Zm0,0" transform="translate(-360.668 -29.552)" fill="#373737"/>
      <path id="Path_1741" data-name="Path 1741" d="M740.556,426.171h-.74a1.106,1.106,0,0,1-1.06-.78,8.913,8.913,0,0,0-.709-1.691,1.108,1.108,0,0,1,.191-1.313l.53-.53a1.111,1.111,0,0,0,0-1.571l-.9-.9a1.111,1.111,0,0,0-1.571,0l-.53.53a1.108,1.108,0,0,1-1.314.191,8.916,8.916,0,0,0-1.691-.709,1.106,1.106,0,0,1-.78-1.06v-.74a1.111,1.111,0,0,0-1.111-1.111H729.61A1.111,1.111,0,0,0,728.5,417.6v.692a1.106,1.106,0,0,1-.8,1.066,8.946,8.946,0,0,0-1.744.7,1.107,1.107,0,0,1-1.3-.2l-.473-.473a1.111,1.111,0,0,0-1.571,0l-.895.9a1.111,1.111,0,0,0,0,1.571l.425.425a1.107,1.107,0,0,1,.186,1.323,8.946,8.946,0,0,0-.762,1.785,1.112,1.112,0,0,1-1.066.782h-.57a1.111,1.111,0,0,0-1.111,1.111v1.266a1.111,1.111,0,0,0,1.111,1.111h.525a1.106,1.106,0,0,1,1.067.8,8.936,8.936,0,0,0,.755,1.844,1.1,1.1,0,0,1-.194,1.309l-.365.366a1.111,1.111,0,0,0,0,1.571l.895.9a1.111,1.111,0,0,0,1.571,0l.365-.366a1.106,1.106,0,0,1,1.309-.194,8.92,8.92,0,0,0,1.843.755,1.106,1.106,0,0,1,.8,1.067v.525a1.111,1.111,0,0,0,1.111,1.111h1.266a1.111,1.111,0,0,0,1.111-1.111v-.57a1.112,1.112,0,0,1,.782-1.066,8.938,8.938,0,0,0,1.785-.762,1.107,1.107,0,0,1,1.323.186l.425.425a1.111,1.111,0,0,0,1.571,0l.9-.9a1.111,1.111,0,0,0,0-1.571l-.473-.473a1.106,1.106,0,0,1-.2-1.3,8.91,8.91,0,0,0,.7-1.744,1.107,1.107,0,0,1,1.066-.8h.692a1.11,1.11,0,0,0,1.11-1.111v-1.266a1.11,1.11,0,0,0-1.11-1.111Zm-10.312,6.652a4.908,4.908,0,1,1,4.908-4.908,4.908,4.908,0,0,1-4.908,4.908Zm0,0" transform="translate(-260.472 -254.824)" fill="#48c6fd"/>
      <path id="Path_1742" data-name="Path 1742" d="M525.965,347.016l5.411-3.539a.537.537,0,0,1,.309-.082,1.085,1.085,0,0,1,.988,1.029.721.721,0,0,1-.309.6l-4.321,2.84,4.321,2.84a.669.669,0,0,1,.309.6,1.064,1.064,0,0,1-.988,1.008.534.534,0,0,1-.309-.083l-5.411-3.539a1.031,1.031,0,0,1-.453-.823,1.067,1.067,0,0,1,.453-.844Zm0,0" transform="translate(-87.93 -189.579)" fill="#373737"/>
      <path id="Path_1743" data-name="Path 1743" d="M622.931,291.309a.6.6,0,0,1-.083.329L615.3,306.7a.746.746,0,0,1-.679.391.8.8,0,0,1-.8-.761.826.826,0,0,1,.062-.309L621.45,290.9a.626.626,0,0,1,.617-.371.84.84,0,0,1,.865.782Zm0,0" transform="translate(-166.748 -142.39)" fill="#373737"/>
      <path id="Path_1744" data-name="Path 1744" d="M727,348.683l-5.411,3.539a.469.469,0,0,1-.288.083,1.049,1.049,0,0,1-.988-1.008.7.7,0,0,1,.288-.6l4.342-2.84-4.342-2.84a.761.761,0,0,1-.288-.6,1.069,1.069,0,0,1,.988-1.029.472.472,0,0,1,.288.082L727,347.016a1.067,1.067,0,0,1,.453.844.977.977,0,0,1-.453.823Zm0,0" transform="translate(-261.807 -189.579)" fill="#373737"/>
      <path id="Path_1745" data-name="Path 1745" d="M466.521,166.209h17.519a.806.806,0,1,0,0-1.611H466.521a.806.806,0,1,0,0,1.611Zm0,0" transform="translate(-34.556 -29.989)" fill="#373737"/>
      <path id="Path_1746" data-name="Path 1746" d="M457.766,178.668H429.6a.988.988,0,0,1-.987-.987V139.83h46.057v21.839a.806.806,0,1,0,1.611,0V133.6a2.6,2.6,0,0,0-2.6-2.6H429.6a2.6,2.6,0,0,0-2.6,2.6v44.083a2.6,2.6,0,0,0,2.6,2.6h28.168a.806.806,0,0,0,0-1.611ZM429.6,132.611h44.083a.988.988,0,0,1,.987.987v4.62H428.611V133.6a.988.988,0,0,1,.987-.987Zm0,0" transform="translate(0 0)" fill="#373737"/>
      <path id="Path_1747" data-name="Path 1747" d="M777.683,469.641a5.714,5.714,0,1,0,5.714,5.714,5.72,5.72,0,0,0-5.714-5.714Zm0,9.816a4.1,4.1,0,1,1,4.1-4.1,4.107,4.107,0,0,1-4.1,4.1Zm0,0" transform="translate(-307.912 -302.264)" fill="#373737"/>
      <path id="Path_1748" data-name="Path 1748" d="M733.861,418.671h-.74a.3.3,0,0,1-.289-.208,9.8,9.8,0,0,0-.773-1.843.3.3,0,0,1,.054-.358l.53-.531a1.919,1.919,0,0,0,0-2.71l-.9-.9a1.919,1.919,0,0,0-2.71,0l-.53.53a.3.3,0,0,1-.358.054,9.789,9.789,0,0,0-1.843-.773.3.3,0,0,1-.208-.289v-.739a1.919,1.919,0,0,0-1.917-1.917h-1.266A1.919,1.919,0,0,0,721,410.909v.691a.3.3,0,0,1-.214.291,9.752,9.752,0,0,0-1.9.765.3.3,0,0,1-.352-.057l-.473-.473a1.916,1.916,0,0,0-2.71,0l-.895.9a1.916,1.916,0,0,0,0,2.71l.424.425a.3.3,0,0,1,.054.359,9.748,9.748,0,0,0-.831,1.947.307.307,0,0,1-.3.21h-.569a1.919,1.919,0,0,0-1.917,1.916v1.266a1.919,1.919,0,0,0,1.917,1.916h.525a.3.3,0,0,1,.292.212,9.719,9.719,0,0,0,.823,2.01.3.3,0,0,1-.057.353l-.365.366a1.918,1.918,0,0,0,0,2.71l.895.9a1.918,1.918,0,0,0,2.71,0l.366-.366a.3.3,0,0,1,.353-.057,9.736,9.736,0,0,0,2.009.823.3.3,0,0,1,.212.292v.525a1.919,1.919,0,0,0,1.916,1.916h1.266a1.918,1.918,0,0,0,1.916-1.916v-.569a.306.306,0,0,1,.21-.3,9.76,9.76,0,0,0,1.947-.831.3.3,0,0,1,.359.053l.425.425a1.919,1.919,0,0,0,2.71,0l.9-.9a1.918,1.918,0,0,0,0-2.71l-.473-.473a.3.3,0,0,1-.057-.352,9.764,9.764,0,0,0,.765-1.9.3.3,0,0,1,.291-.214h.691a1.918,1.918,0,0,0,1.916-1.916v-1.266a1.919,1.919,0,0,0-1.916-1.917Zm.305,3.182a.306.306,0,0,1-.305.305h-.692a1.918,1.918,0,0,0-1.84,1.384,8.137,8.137,0,0,1-.639,1.587,1.9,1.9,0,0,0,.341,2.247l.473.473a.306.306,0,0,1,0,.431l-.9.9a.306.306,0,0,1-.432,0l-.425-.425a1.918,1.918,0,0,0-2.288-.318,8.15,8.15,0,0,1-1.624.693,1.928,1.928,0,0,0-1.354,1.837v.569a.306.306,0,0,1-.305.305h-1.266a.305.305,0,0,1-.3-.305v-.525a1.918,1.918,0,0,0-1.382-1.842,8.129,8.129,0,0,1-1.677-.687,1.887,1.887,0,0,0-.9-.23,1.924,1.924,0,0,0-1.36.561l-.366.366a.306.306,0,0,1-.431,0l-.9-.9a.306.306,0,0,1,0-.432l.366-.366a1.92,1.92,0,0,0,.331-2.265,8.123,8.123,0,0,1-.687-1.677,1.918,1.918,0,0,0-1.842-1.383h-.525a.306.306,0,0,1-.306-.3v-1.266a.306.306,0,0,1,.306-.305h.569a1.928,1.928,0,0,0,1.837-1.354,8.143,8.143,0,0,1,.693-1.624,1.918,1.918,0,0,0-.319-2.288l-.425-.425a.306.306,0,0,1,0-.432l.9-.9a.305.305,0,0,1,.432,0l.473.473a1.9,1.9,0,0,0,2.247.341,8.129,8.129,0,0,1,1.586-.639,1.918,1.918,0,0,0,1.384-1.841v-.692a.305.305,0,0,1,.3-.305h1.266a.306.306,0,0,1,.305.305v.74a1.9,1.9,0,0,0,1.352,1.831,8.108,8.108,0,0,1,1.538.645,1.925,1.925,0,0,0,2.27-.329l.53-.53a.306.306,0,0,1,.432,0l.9.9a.306.306,0,0,1,0,.432l-.53.53a1.924,1.924,0,0,0-.329,2.269,8.135,8.135,0,0,1,.645,1.538,1.9,1.9,0,0,0,1.831,1.352h.74a.305.305,0,0,1,.305.305Zm0,0" transform="translate(-253.778 -248.13)" fill="#373737"/>
    </g>
  </g>
</svg>
